<svg xmlns="http://www.w3.org/2000/svg" xmlns:xlink="http://www.w3.org/1999/xlink" width="189" height="156" viewBox="0 0 209.572 173.477">
  <defs>
    <linearGradient id="linear-gradient" x1="-0.096" y1="1.071" x2="0.539" y2="0.552" gradientUnits="objectBoundingBox">
      <stop offset="0" stop-color="#683020"/>
      <stop offset="1" stop-color="#c25a3c"/>
    </linearGradient>
    <linearGradient id="linear-gradient-2" x1="1" y1="0.123" x2="-0.598" y2="2.887" gradientUnits="objectBoundingBox">
      <stop offset="0" stop-color="#e1de46"/>
      <stop offset="1" stop-color="#716f23"/>
    </linearGradient>
    <linearGradient id="linear-gradient-3" x1="0.837" y1="-0.507" x2="0.5" y2="1" gradientUnits="objectBoundingBox">
      <stop offset="0" stop-color="#c25a3c"/>
      <stop offset="1" stop-color="#612d1e"/>
    </linearGradient>
    <linearGradient id="linear-gradient-4" x1="0.72" y1="0.683" x2="0.628" y2="1.658" gradientUnits="objectBoundingBox">
      <stop offset="0" stop-color="#fff"/>
      <stop offset="1" stop-color="gray"/>
    </linearGradient>
    <linearGradient id="linear-gradient-14" x1="0.5" x2="-0.607" y2="0.433" gradientUnits="objectBoundingBox">
      <stop offset="0" stop-color="#a8a634"/>
      <stop offset="1" stop-color="#54531a"/>
    </linearGradient>
    <linearGradient id="linear-gradient-15" x1="0.5" x2="0.924" y2="0.867" gradientUnits="objectBoundingBox">
      <stop offset="0" stop-color="#dbd844"/>
      <stop offset="1" stop-color="#6e6c22"/>
    </linearGradient>
  </defs>
  <g id="Grupo_1" data-name="Grupo 1" transform="translate(-23.324 -85.89)">
    <path id="Trazado_1" data-name="Trazado 1" d="M61.905,1.048A15.6,15.6,0,0,0,54.169,6.6,32.988,32.988,0,0,1,34.241,18.622a39.587,39.587,0,0,0-8.072,2.607c-3.784,1.934-7.4,7.9-7.988,13.033-.757,6.391-4.458,13.033-10.511,18.919C2.877,57.8-.654,62.6.1,63.439c.168.168,3.868-.252,8.24-.925,4.373-.589,12.949-1.6,18.919-2.1,16.228-1.43,16.313-1.43,16.817-3.784.252-1.177.673-3.111.925-4.372.673-3.279,4.793-6.643,8.829-7.315,4.793-.757,8.072-2.607,12.276-6.895,4.457-4.624,6.559-5.129,14.042-3.279,5.634,1.43,6.306,1.43,10.763.083,7.9-2.27,11.267-1.6,14.967,3.111,2.439,3.027,7.988,6.222,12.361,6.895a10.363,10.363,0,0,1,9.082,9.082c.672,4.625-.337,4.289,15.557,5.634,6.222.5,15.051,1.513,19.592,2.27,4.541.673,8.493,1.093,8.661.841,1.009-.925-2.354-5.465-6.979-9.5-5.887-5.128-9.082-10.679-10.764-18.834-2.018-9.67-5.718-13.37-15.135-15.051A31.359,31.359,0,0,1,119.588,8.785c-2.691-2.943-6.138-5.97-7.652-6.727-3.784-1.934-9.67-1.85-15.893.252-6.979,2.354-13.033,2.27-20.937-.336C67.791-.382,66.362-.55,61.905,1.048Z" transform="translate(42.236 85.89) rotate(0.5)" fill="url(#linear-gradient)"/>
    <path id="Trazado_8" data-name="Trazado 8" d="M883,366.2c95.426-16.195,190.5,0,190.5,0l-6.645,54.549s-36.89-8.689-88.6-8.86-88.6,8.86-88.6,8.86Z" transform="translate(-850.14 -215.212)" stroke="#707070" stroke-width="1" fill="url(#linear-gradient-2)"/>
    <path id="Trazado_2" data-name="Trazado 2" d="M165.774-79.924a36.946,36.946,0,0,0-1.345,5.129c-.841,4.709-3.868,7.736-8.829,8.745-5.55,1.177-7.063,2.1-12.193,6.811-5.045,4.708-7.9,5.548-12.866,3.783a21.874,21.874,0,0,0-14.463.083c-5.129,1.766-7.9,1.009-13.117-3.952C98.337-63.7,94.132-65.967,90.6-65.967c-3.2,0-7.9-4.541-8.493-8.24a40.432,40.432,0,0,0-1.345-5.129c-.757-1.85-1.093-1.934-6.054-1.43-8.659.926-31.278,4.121-31.615,4.458-.252.168,1.009,1.43,2.691,2.859,3.952,3.2,8.745,12.529,9.5,18.33.757,5.55,4.372,11.268,8.492,13.454a40.771,40.771,0,0,0,8.156,2.522c6.727,1.261,12.024,4.372,18.5,10.931,7.736,7.9,12.024,9.165,21.189,5.886,6.979-2.522,16.9-2.522,22.871-.083,8.493,3.532,14.883,1.766,21.442-5.886a34.563,34.563,0,0,1,17.826-10.763c2.354-.42,5.045-1.009,6.054-1.261,2.522-.589,7.568-5.129,9.165-8.156a35.389,35.389,0,0,0,2.1-7.147c1.261-6.474,4.961-13.538,9.165-17.406,1.934-1.766,3.363-3.279,3.2-3.448-.083-.168-7.4-1.261-16.228-2.439-8.745-1.261-17.069-2.439-18.33-2.607C167.035-81.858,166.447-81.522,165.774-79.924Z" transform="translate(4.489 280.005)" fill="url(#linear-gradient-3)"/>
    <path id="Trazado_10" data-name="Trazado 10" d="M33.876,36.168a1.772,1.772,0,0,1-.078.653q-.857,1.74-1.908,3.671a23.386,23.386,0,0,1-2.375,3.562,13.489,13.489,0,0,1-2.94,2.719,6.371,6.371,0,0,1-3.641,1.088,4.394,4.394,0,0,1-1.85-.49,24.885,24.885,0,0,1-2.278-1.251q-1.246-.761-2.686-1.632T13.044,42.8A10.334,10.334,0,0,1,9.851,46.42a8.713,8.713,0,0,1-5.1,1.387,5.7,5.7,0,0,1-3.621-.925A2.9,2.9,0,0,1,0,44.544a4.987,4.987,0,0,1,.6-2.229A8.739,8.739,0,0,1,2.356,40,12.825,12.825,0,0,1,5.14,37.99a14.71,14.71,0,0,1,3.7-1.387,35.91,35.91,0,0,0,.6-5.032q.136-2.638.156-5.384t.058-5.466Q9.7,18,9.929,15.446a22.328,22.328,0,0,1,1.207-5.493A23.482,23.482,0,0,1,13.53,4.977,14.635,14.635,0,0,1,16.7,1.387,5.689,5.689,0,0,1,20.248,0,6.248,6.248,0,0,1,23.4,1.06a14.6,14.6,0,0,1,3.29,2.775A17.061,17.061,0,0,1,29.3,7.724a9.992,9.992,0,0,1,1.071,4.46,2.134,2.134,0,0,1-.214.816,6.008,6.008,0,0,1-1.188,1.468q-.974.978-2.979,2.639t-5.549,4.378a.914.914,0,0,1-.234.163,1.62,1.62,0,0,1-.506.109.66.66,0,0,1-.545-.354,3.9,3.9,0,0,1-.389-.761,3.852,3.852,0,0,1-.214-.789q-.058-.381-.058-.435a1.477,1.477,0,0,1,.136-.544,1.374,1.374,0,0,1,.565-.6,9.431,9.431,0,0,0,1.168-.979q.818-.761,1.674-1.578,1.012-.979,2.18-2.067a.825.825,0,0,0,.272-.272,1.964,1.964,0,0,0,.175-.326,1.186,1.186,0,0,0,.1-.49,9.2,9.2,0,0,0-.409-2.012A23.794,23.794,0,0,0,23.265,7.5a13.783,13.783,0,0,0-1.6-2.8A2.5,2.5,0,0,0,19.741,3.48q-.974,0-1.635,1.387a15.19,15.19,0,0,0-1.09,3.644,49.26,49.26,0,0,0-.662,5.058q-.234,2.8-.332,5.629T15.9,24.61q-.019,2.583-.058,4.324-.039,1.578-.214,3.454t-.526,3.889a21.071,21.071,0,0,1,3.915.872q1.811.6,3.368,1.224t2.881,1.142a6.87,6.87,0,0,0,2.492.517,2.642,2.642,0,0,0,1.616-.571,7.812,7.812,0,0,0,1.44-1.441,13.854,13.854,0,0,0,1.246-1.9q.565-1.033.993-2.012a.232.232,0,0,1,.194-.109q.272,0,.448.761A6.331,6.331,0,0,1,33.876,36.168Z" transform="translate(38.451 151.827) rotate(-6.024)" fill="url(#linear-gradient-4)"/>
    <path id="Trazado_11" data-name="Trazado 11" d="M17.173,10.224a1.015,1.015,0,0,1-.058.423q-1.183,1.868-2.309,3.313-.491.635-1,1.216t-.98,1.058a5.421,5.421,0,0,1-.924.758,1.54,1.54,0,0,1-.794.282A1.658,1.658,0,0,1,9.6,16.164a9.276,9.276,0,0,1-.765-2.626,9.225,9.225,0,0,1-.592.74,16.617,16.617,0,0,1-1.3,1.357,12.519,12.519,0,0,1-1.6,1.287,2.751,2.751,0,0,1-1.471.565,2.523,2.523,0,0,1-1.545-.528A4.723,4.723,0,0,1,1.1,15.546a7.589,7.589,0,0,1-.808-2.061A10.59,10.59,0,0,1,0,10.965,11.942,11.942,0,0,1,.649,7.156,9.75,9.75,0,0,1,2.756,3.631,11.051,11.051,0,0,1,6.58,1.022,14.624,14.624,0,0,1,12.382,0a.687.687,0,0,1,.173.106,1.544,1.544,0,0,1,.13.194.75.75,0,0,1,.073.372v9.694q0,.282.014.617a2.7,2.7,0,0,0,.1.635,1.369,1.369,0,0,0,.245.493.546.546,0,0,0,.447.194,1.391,1.391,0,0,0,1.039-.511,8.141,8.141,0,0,0,.981-1.181q.26-.388.505-.828t.476-.9a.179.179,0,0,1,.144-.071q.2,0,.332.493a3.616,3.616,0,0,1,.13.917ZM8.716,2.434A5.15,5.15,0,0,0,6.581,3.491,6.458,6.458,0,0,0,5.166,5.183a6.944,6.944,0,0,0-.779,2.045,10.383,10.383,0,0,0-.231,2.15A8.85,8.85,0,0,0,4.3,11a6.618,6.618,0,0,0,.39,1.357,2.954,2.954,0,0,0,.591.935,1.04,1.04,0,0,0,.75.352,1.3,1.3,0,0,0,.779-.352,9.134,9.134,0,0,0,.837-.775,11.892,11.892,0,0,0,.924-1.128.66.66,0,0,0,.1-.264,1.772,1.772,0,0,0,.014-.194V6.135Q8.687,4.442,8.716,2.434Z" transform="translate(74.943 170.044) rotate(-4.012)" fill="url(#linear-gradient-4)"/>
    <path id="Trazado_12" data-name="Trazado 12" d="M30.2,14.069a5.281,5.281,0,0,1-.246,1.715,1.865,1.865,0,0,1-.738,1.021q-2.707,1.772-4.588,3.006T21.5,21.855q-1.248.809-1.951,1.291a12.426,12.426,0,0,0-1.038.77,1.645,1.645,0,0,0-.422.482.637.637,0,0,0-.053.385q.141,2.2.228,3.449t.141,1.927q.053.675.07.925t.017.482a13.64,13.64,0,0,1-.562,3.8,13.2,13.2,0,0,1-1.617,3.565,9.546,9.546,0,0,1-2.549,2.658,5.682,5.682,0,0,1-3.323,1.041,5.784,5.784,0,0,1-2.391-.6,10.387,10.387,0,0,1-2.444-1.579,9.072,9.072,0,0,1-1.9-2.255,5.067,5.067,0,0,1-.756-2.621,1.782,1.782,0,0,1,.457-1.214,3.441,3.441,0,0,1,1.09-.829,6.088,6.088,0,0,1,1.3-.462,4.992,4.992,0,0,1,1.054-.155,1,1,0,0,1,.6.154,1.674,1.674,0,0,1,.369.772q.158.578.316,1.329t.369,1.581a8.118,8.118,0,0,0,.545,1.523,3.617,3.617,0,0,0,.826,1.137,1.77,1.77,0,0,0,1.23.443q.6,0,.984-.829a8.166,8.166,0,0,0,.6-2.024,23.46,23.46,0,0,0,.3-2.486q.088-1.291.088-2.215,0-2.891-.228-5.685t-.492-5.532q-.264-2.736-.475-5.4t-.212-5.241a3.777,3.777,0,0,1,.158-1.021q.158-.559,1-.751.457-.116,1.072-.249t1.16-.289q.545-.154.949-.249t.439-.1a1.362,1.362,0,0,1,.526.173q.352.173.388.944,0,.308.053,1.311t.088,2.332q.035,1.329.105,2.813t.105,2.794q.035,1.311.07,2.255t.07,1.175a.115.115,0,0,0,.035.077.191.191,0,0,0,.141.038l.141-.077q.07-.038.7-.462t1.547-1.06q.914-.637,1.986-1.368L24.5,17.309a.906.906,0,0,0,.141-.231,1.375,1.375,0,0,0,.123-.27,1.357,1.357,0,0,0,.053-.424,12.559,12.559,0,0,0-.771-4.377,12,12,0,0,0-2.145-3.7,10.249,10.249,0,0,0-3.287-2.544,9.3,9.3,0,0,0-4.166-.944A10.647,10.647,0,0,0,6.276,8.4,11.435,11.435,0,0,0,4.1,12.124,12.709,12.709,0,0,0,3.34,16.46,12.468,12.468,0,0,0,9.422,27.174a.786.786,0,0,1,.281.366,1.427,1.427,0,0,1,.105.559,1.684,1.684,0,0,1-.105.617.949.949,0,0,1-.246.4.671.671,0,0,1-.492.173,12.1,12.1,0,0,1-3.92-2.177A13.507,13.507,0,0,1,2.25,23.9,14.41,14.41,0,0,1,.563,19.966,16.759,16.759,0,0,1,0,15.65a17.442,17.442,0,0,1,.967-5.7A14.623,14.623,0,0,1,3.885,4.934,14.835,14.835,0,0,1,8.754,1.369,15.828,15.828,0,0,1,15.54,0a14.34,14.34,0,0,1,4.571.694,14.151,14.151,0,0,1,3.71,1.85,13.953,13.953,0,0,1,2.83,2.641,17.4,17.4,0,0,1,1.986,3.046,15,15,0,0,1,1.178,3.083,11.3,11.3,0,0,1,.386,2.754Z" transform="translate(99.985 147.453) rotate(-2)" fill="url(#linear-gradient-4)"/>
    <path id="Trazado_13" data-name="Trazado 13" d="M17.772,10.051a.953.953,0,0,1-.06.415q-1.225,1.838-2.39,3.259-.508.624-1.031,1.2t-1.016,1.04a5.563,5.563,0,0,1-.956.745,1.649,1.649,0,0,1-.822.277,1.712,1.712,0,0,1-1.568-1.092,8.78,8.78,0,0,1-.792-2.582,9.158,9.158,0,0,1-.612.728,16.736,16.736,0,0,1-1.344,1.334,12.864,12.864,0,0,1-1.657,1.265A2.939,2.939,0,0,1,4,17.19a2.7,2.7,0,0,1-1.6-.518,4.725,4.725,0,0,1-1.27-1.386A7.248,7.248,0,0,1,.3,13.258,9.918,9.918,0,0,1,0,10.78,11.214,11.214,0,0,1,.672,7.036,9.5,9.5,0,0,1,2.853,3.57,11.474,11.474,0,0,1,6.81,1.005a15.842,15.842,0,0,1,6-1.005.72.72,0,0,1,.179.1,1.516,1.516,0,0,1,.134.19A.707.707,0,0,1,13.2.658V10.19q0,.277.015.607a2.53,2.53,0,0,0,.1.624,1.322,1.322,0,0,0,.254.485.578.578,0,0,0,.463.191,1.471,1.471,0,0,0,1.075-.5,8.113,8.113,0,0,0,1.016-1.161q.269-.381.523-.815t.493-.884a.189.189,0,0,1,.149-.069q.209,0,.344.485A3.39,3.39,0,0,1,17.772,10.051ZM9.021,2.391a5.442,5.442,0,0,0-2.21,1.04A6.439,6.439,0,0,0,5.347,5.095,6.624,6.624,0,0,0,4.54,7.1,9.719,9.719,0,0,0,4.3,9.219a8.281,8.281,0,0,0,.149,1.594,6.261,6.261,0,0,0,.4,1.334,2.892,2.892,0,0,0,.611.919,1.1,1.1,0,0,0,.775.347,1.376,1.376,0,0,0,.807-.347,9.287,9.287,0,0,0,.866-.763A11.84,11.84,0,0,0,8.871,11.2a.629.629,0,0,0,.1-.26,1.658,1.658,0,0,0,.015-.19V6.031Q8.991,4.367,9.021,2.391Z" transform="translate(121.741 171.269) rotate(-2)" fill="url(#linear-gradient-4)"/>
    <path id="Trazado_14" data-name="Trazado 14" d="M16.544,11.21a1.163,1.163,0,0,1-.059.459q-.649,1.224-1.43,2.506a23.879,23.879,0,0,1-1.592,2.315,11.968,11.968,0,0,1-1.592,1.7,2.322,2.322,0,0,1-1.46.67,1.234,1.234,0,0,1-.87-.383,3.131,3.131,0,0,1-.692-1.263,11.566,11.566,0,0,1-.457-2.3,31.345,31.345,0,0,1-.162-3.482q0-.956-.03-2.085T8.1,7.231a12.067,12.067,0,0,0-.222-1.664q-.148-.67-.383-.67a1.538,1.538,0,0,0-1.076.689A8.52,8.52,0,0,0,5.353,7.25a12.6,12.6,0,0,0-.8,2.009,6.227,6.227,0,0,0-.31,1.722q0,.23.015.574t.03,1.09q.015.746.074,2.047T4.512,18.1a1.57,1.57,0,0,1-.059.459q-.118.421-.354.421H1.858q-.56,0-1.121-.038a.265.265,0,0,1-.266-.076.9.9,0,0,1-.177-.23.939.939,0,0,1-.089-.459Q.147,16.95.088,15.534.029,14.348.015,12.818T0,9.679Q0,8.416.03,7.058T.089,4.552Q.118,3.4.148,2.62a8,8,0,0,1,.059-.9,1.826,1.826,0,0,1,.178-.439A.788.788,0,0,1,.855.957q.177-.038.59-.134t.87-.21A8.241,8.241,0,0,1,3.185.44a4.98,4.98,0,0,1,.56-.057q.56,0,.56.65,0,.306-.03.88T4.217,3.119q-.03.631-.059,1.282t-.03,1.148a3.2,3.2,0,0,0,.03.574A8.431,8.431,0,0,1,5.19,4.267,15.287,15.287,0,0,1,6.857,2.277,12.146,12.146,0,0,1,8.8.67,3.445,3.445,0,0,1,10.645,0a1.539,1.539,0,0,1,1.342.823A5.49,5.49,0,0,1,12.5,3.6q0,.23-.015,1.377t-.015,2.449q-.029,1.53-.03,3.367a3.59,3.59,0,0,0,.207,1.224.848.848,0,0,0,.8.612,1.433,1.433,0,0,0,1.312-.765,22.946,22.946,0,0,0,1.165-2.1.179.179,0,0,1,.148-.076q.207,0,.339.536a4.153,4.153,0,0,1,.133.995Z" transform="translate(139.372 168.966) rotate(1)" fill="url(#linear-gradient-4)"/>
    <path id="Trazado_17" data-name="Trazado 17" d="M5.536,2.926A3,3,0,0,1,4.776,5a2.338,2.338,0,0,1-3.61,0A3.042,3.042,0,0,1,.421,2.926,3.062,3.062,0,0,1,1.165.871a2.307,2.307,0,0,1,3.61,0A3.023,3.023,0,0,1,5.536,2.926ZM9.195,20.671a1.006,1.006,0,0,1-.065.444q-1.23,1.926-2.4,3.408-.486.63-1.02,1.241a14.694,14.694,0,0,1-1.052,1.093,6.369,6.369,0,0,1-1,.778,1.722,1.722,0,0,1-.874.3,1.768,1.768,0,0,1-1.376-.593,4.188,4.188,0,0,1-.842-1.574A11.454,11.454,0,0,1,.13,23.5,25.894,25.894,0,0,1,0,20.893q0-1.111.016-2.445t.032-2.575q.016-1.241.032-2.26t.016-1.5a2.286,2.286,0,0,1,.081-.667,1.655,1.655,0,0,1,.179-.407,1.038,1.038,0,0,1,.259-.222,4.635,4.635,0,0,1,.89-.332q.534-.148,1.036-.259t.907-.166q.4-.055.5-.055a.514.514,0,0,1,.486.222,1.011,1.011,0,0,1,.13.519V11.8q0,.648-.016,1.778t-.032,2.889Q4.5,18.228,4.5,20.821a6.207,6.207,0,0,0,.113,1.2.725.725,0,0,0,.761.611,1.519,1.519,0,0,0,.842-.277,3.619,3.619,0,0,0,.809-.76,10.145,10.145,0,0,0,.761-1.093q.372-.611.728-1.241a.206.206,0,0,1,.162-.074q.226,0,.372.519A3.576,3.576,0,0,1,9.195,20.671Z" transform="translate(180.951 162.209) rotate(3)" fill="url(#linear-gradient-4)"/>
    <path id="Trazado_16" data-name="Trazado 16" d="M13.283-82.7a1.034,1.034,0,0,1-.058.429q-1.1,1.858-2.149,3.286-.436.607-.916,1.2a13.776,13.776,0,0,1-.945,1.052,5.787,5.787,0,0,1-.9.75,1.475,1.475,0,0,1-.785.286,1.539,1.539,0,0,1-1.235-.572,4.138,4.138,0,0,1-.756-1.517,11.768,11.768,0,0,1-.392-2.179q-.116-1.232-.116-2.518,0-1.071.058-2.143t.131-2.018q.073-.946.16-1.714t.145-1.232q.058-.643.087-.929a2.021,2.021,0,0,0,.028-.321,3.825,3.825,0,0,1-.581-.107,3.953,3.953,0,0,0-.421-.107q-.189-.036-.218-.107Q3.749-89.053,3.08-87.2q-.291.786-.6,1.589T1.86-84.071q-.32.732-.625,1.321a7.368,7.368,0,0,1-.567.946q0,.036-.028.036H.523a.212.212,0,0,1-.2-.107.72.72,0,0,1-.1-.286q-.044-.214-.1-.464Q.058-82.911,0-83.232a18.605,18.605,0,0,0,.886-1.786q.509-1.143,1-2.375t.887-2.393q.392-1.161.567-1.911A4.424,4.424,0,0,1,1.526-93.41a4.19,4.19,0,0,1-.538-2,3.229,3.229,0,0,1,.567-1.911,1.7,1.7,0,0,1,1.44-.8,1.132,1.132,0,0,1,1.075.57,2.587,2.587,0,0,1,.32,1.286,3.672,3.672,0,0,1-.218,1.25,2.428,2.428,0,0,1-.6.964,3.356,3.356,0,0,0,1.671,1.232,6.445,6.445,0,0,0,1.816.267q.436,0,.959-.018t.7-.018a1.459,1.459,0,0,1,.465.053q.145.053.145.339a9.187,9.187,0,0,1-.073,1.018q-.073.625-.16,1.714T8.924-86.7q-.087,1.679-.087,4.179a3,3,0,0,0,.218,1.143.858.858,0,0,0,.8.572,1.3,1.3,0,0,0,.756-.268,3.355,3.355,0,0,0,.727-.732,9.824,9.824,0,0,0,.683-1.052q.334-.589.654-1.2a.18.18,0,0,1,.145-.071q.2,0,.334.5A3.684,3.684,0,0,1,13.283-82.7Z" transform="translate(167.151 264.342)" fill="url(#linear-gradient-4)"/>
    <path id="Trazado_15" data-name="Trazado 15" d="M12.928,12.4a.932.932,0,0,1-.06.411,21.7,21.7,0,0,1-1.433,2.261A15.621,15.621,0,0,1,9.629,17.18a10.171,10.171,0,0,1-2.015,1.541,4.074,4.074,0,0,1-2.03.6,3.987,3.987,0,0,1-2.254-.685,6.189,6.189,0,0,1-1.777-1.85A9.465,9.465,0,0,1,.4,14.131,11.954,11.954,0,0,1,0,11,17.1,17.1,0,0,1,.463,7.075a12.4,12.4,0,0,1,1.4-3.544A8.061,8.061,0,0,1,4.225.979,5.725,5.725,0,0,1,7.554,0,2.565,2.565,0,0,1,9.629.91a3.689,3.689,0,0,1,.761,2.449A4.239,4.239,0,0,1,9.943,5.14,9.529,9.529,0,0,1,8.689,7.093,19.154,19.154,0,0,1,6.763,9.114,24.009,24.009,0,0,1,4.271,11.1a7.363,7.363,0,0,0,1.254,2.655A2.63,2.63,0,0,0,7.7,14.835a3.325,3.325,0,0,0,1.806-.5,6.31,6.31,0,0,0,1.358-1.131,7.673,7.673,0,0,0,.923-1.252q.358-.617.508-.856a.19.19,0,0,1,.149-.068q.209,0,.343.48a3.315,3.315,0,0,1,.135.89ZM7.495,3.769q0-.788-.313-.959a1.163,1.163,0,0,0-.433-.171A1.769,1.769,0,0,0,5.539,3.1a3.7,3.7,0,0,0-.881,1.233,7.2,7.2,0,0,0-.537,1.781,11.851,11.851,0,0,0-.179,2.073q0,.274,0,.514a3.877,3.877,0,0,0,.03.48,6.2,6.2,0,0,0,1.09-.959,11.8,11.8,0,0,0,1.149-1.44A11.159,11.159,0,0,0,7.121,5.19a3.458,3.458,0,0,0,.373-1.42Z" transform="translate(155.902 168.431) rotate(3)" fill="url(#linear-gradient-4)"/>
    <path id="Trazado_18" data-name="Trazado 18" d="M10.945,21.464a1.1,1.1,0,0,1-.063.46,29.621,29.621,0,0,1-1.634,2.606A18.828,18.828,0,0,1,7.33,26.867a11.033,11.033,0,0,1-2.013,1.667,3.587,3.587,0,0,1-1.887.632,2.026,2.026,0,0,1-1.18-.383A3.057,3.057,0,0,1,1.29,27.5a9.046,9.046,0,0,1-.629-2.318A23.247,23.247,0,0,1,.44,21.694q0-1.073.016-3.085T.535,14.22a.277.277,0,0,1-.157.077.24.24,0,0,0-.126.038.212.212,0,0,1-.094.038Q0,14.374,0,14.029v-.537q0-.345.032-.69,0-.421.032-.881a.483.483,0,0,0,.047-.211q.016-.173.3-.326a.677.677,0,0,0,.252-.115q.063-1.8.157-3.526t.2-3.085q.111-1.36.267-2.243a2.43,2.43,0,0,1,.346-1.073q.346-.192.865-.421T3.507.482q.488-.211.881-.345A2.3,2.3,0,0,1,4.876,0a.489.489,0,0,1,.471.23,1.1,1.1,0,0,1,.126.537q0,.038-.032.748T5.346,3.395Q5.283,4.563,5.2,6.1T5.063,9.354q.755-.307,1.463-.613L7.768,8.2q.629-.268,1.227-.537a.24.24,0,0,0,.126-.038.291.291,0,0,0,.111-.019.291.291,0,0,1,.111-.019.393.393,0,0,1,.267.1.536.536,0,0,1,.111.4q0,.307-.016.652t-.047.652q-.032.383-.063.69a.532.532,0,0,1-.094.268,1.224,1.224,0,0,1-.222.268.985.985,0,0,1-.409.23L4.938,12.42q-.094,2.492-.141,4.847t-.047,4.158a2.98,2.98,0,0,0,.44,1.782,1.38,1.38,0,0,0,1.163.594,3.138,3.138,0,0,0,1.95-.92,8.5,8.5,0,0,0,1.982-2.874.1.1,0,0,1,.094-.077q.252,0,.409.537A3.557,3.557,0,0,1,10.945,21.464Z" transform="translate(190.869 162.393) rotate(8)" fill="url(#linear-gradient-4)"/>
    <path id="Trazado_19" data-name="Trazado 19" d="M17.423,10.051a.969.969,0,0,1-.059.415q-1.2,1.837-2.342,3.258-.5.624-1.01,1.2t-1,1.04a5.469,5.469,0,0,1-.937.745,1.6,1.6,0,0,1-.805.277,1.678,1.678,0,0,1-1.537-1.092,8.909,8.909,0,0,1-.775-2.582,9.12,9.12,0,0,1-.6.728,16.573,16.573,0,0,1-1.316,1.336,12.64,12.64,0,0,1-1.626,1.264,2.845,2.845,0,0,1-1.493.554,2.613,2.613,0,0,1-1.567-.518,4.692,4.692,0,0,1-1.244-1.386,7.329,7.329,0,0,1-.82-2.028A10.106,10.106,0,0,1,0,10.78,11.416,11.416,0,0,1,.659,7.036,9.532,9.532,0,0,1,2.8,3.57a11.23,11.23,0,0,1,3.88-2.565A15.257,15.257,0,0,1,12.562,0a.7.7,0,0,1,.176.1,1.516,1.516,0,0,1,.132.19.718.718,0,0,1,.073.364V10.19q0,.277.015.607a2.575,2.575,0,0,0,.1.624,1.331,1.331,0,0,0,.249.485.562.562,0,0,0,.454.19,1.429,1.429,0,0,0,1.054-.5,8.067,8.067,0,0,0,1-1.161q.264-.381.513-.815t.483-.884a.184.184,0,0,1,.146-.069q.2,0,.337.485A3.453,3.453,0,0,1,17.423,10.051Zm-8.58-7.66a5.29,5.29,0,0,0-2.167,1.04A6.4,6.4,0,0,0,5.241,5.095,6.7,6.7,0,0,0,4.451,7.1a9.906,9.906,0,0,0-.234,2.114,8.442,8.442,0,0,0,.146,1.594,6.354,6.354,0,0,0,.4,1.334,2.9,2.9,0,0,0,.6.918,1.07,1.07,0,0,0,.761.347,1.335,1.335,0,0,0,.791-.347A9.162,9.162,0,0,0,7.76,12.3,11.777,11.777,0,0,0,8.7,11.195a.637.637,0,0,0,.1-.26,1.689,1.689,0,0,0,.015-.19V6.031Q8.815,4.367,8.843,2.391Z" transform="translate(198.781 176.752) rotate(11)" fill="url(#linear-gradient-4)"/>
    <path id="Trazado_20" data-name="Trazado 20" d="M490.162,259h-.051l-.168.048L480,261.215l11.076,28.8-4.43,24.93s5.716-.385,12.905-1.121c5.184-.5,12.693-1.462,12.892-1.659.247-.243-3.165-5.086-4.541-6.645-.66-.836-2.452-2.277-3.12-3.028-1.169-1.316-1.112-1.635-1.422-1.4-2.432.347-7.853,1.677-7.853,1.677" transform="translate(-456 -97.212)" stroke="#707070" stroke-width="1" fill="url(#linear-gradient-14)"/>
    <path id="Trazado_21" data-name="Trazado 21" d="M1137.24,315.757l-4.43-25.746,11.076-28.8L1133.715,259l-5.335,43.745-5.849-1.249-2.88-.536a19.352,19.352,0,0,1-2.7,2.692,18.093,18.093,0,0,0-2.94,3.138l-1.846,2.741-2.015,3.659" transform="translate(-911.665 -97.212)" stroke="#707070" stroke-linecap="round" stroke-width="1" fill="url(#linear-gradient-15)"/>
    <path id="Trazado_22" data-name="Trazado 22" d="M696,133.148s23.194-1.61,44.3-1.4c12.6-.018,26.157.632,34.7,1.125,5,.289,8.35.629,8.263.441a8.437,8.437,0,0,1-1.629-2.339c-.5-2.694-.646-3.176-.961-4.385a10.534,10.534,0,0,0-2.714-4.527s-2.528-2.281-4.825-2.573-8.27-2.9-8.27-2.9a39.912,39.912,0,0,1-3.9-3.091c-1.388-1.266-2.8-2.844-3.383-3.4a9.8,9.8,0,0,0-4.615-2.011,9.345,9.345,0,0,0-2.882,0l-3.132.585s-4.6,1.566-6.645,1.525a7.548,7.548,0,0,1-2.46-.255l-2.516-.406-5.678-1.249-2.5-.1-1.96.321-1.59.771-2.024,1.623-5.639,5.253-2.215,1.269-2.571,1.132s-1.39.24-3.126.667a14.354,14.354,0,0,0-2.583.766,10.046,10.046,0,0,0-2.52,1.372,6.724,6.724,0,0,0-2.49,2.2,8.474,8.474,0,0,0-.911,1.464,16.514,16.514,0,0,0-1.074,3.327c-.177.833-.266,1.606-.409,2.291a9.5,9.5,0,0,1-.311,1.145,1.882,1.882,0,0,1-.581.813A4.034,4.034,0,0,1,696,133.148Z" transform="translate(-612.192 11.977)" fill="#ea8c37" stroke="#707070" stroke-width="1"/>
    <path id="Trazado_23" data-name="Trazado 23" d="M46.122,29.309c15.242.328,42.008-2,41.921-2.238-.146-.392-2.892-1.414-3.791-7.39C83.562,16.4,82.244,12.621,76.8,12.2s-6.39-1.8-11.4-5.178c0,0-3.959-3.745-4.543-4.43A8.929,8.929,0,0,0,56.236.1a7.587,7.587,0,0,0-2.882,0L50.223.826s-4.6,1.938-6.645,1.886a6.225,6.225,0,0,1-2.46-.315L38.6,1.9,32.924.35l-2.5-.124-1.96.4-1.59.954L24.851,3.585S20.527,8.032,17.538,9.69s-7.517,2.223-10.34,3.6a9.836,9.836,0,0,0-3.909,3.863A11.45,11.45,0,0,0,2.013,21.2c-.064.173-.259,1.113-.434,1.955-.044.211-.092.561-.136.706A11.263,11.263,0,0,1,0,27.252C-.427,27.673,30.889,29.786,46.122,29.309Z" transform="translate(171.018 226.025) rotate(180)" fill="#ea8c37" stroke="#707070" stroke-width="1"/>
  </g>
</svg>
