<svg xmlns="http://www.w3.org/2000/svg" xmlns:xlink="http://www.w3.org/1999/xlink" width="753.352" height="626.527" viewBox="0 0 753.352 626.527">
  <defs>
    <linearGradient id="linear-gradient" x1="-0.096" y1="1.071" x2="0.539" y2="0.552" gradientUnits="objectBoundingBox">
      <stop offset="0" stop-color="#683020"/>
      <stop offset="1" stop-color="#c25a3c"/>
    </linearGradient>
    <linearGradient id="linear-gradient-2" x1="1" y1="0.123" x2="-0.598" y2="2.887" gradientUnits="objectBoundingBox">
      <stop offset="0" stop-color="#e1de46"/>
      <stop offset="1" stop-color="#716f23"/>
    </linearGradient>
    <linearGradient id="linear-gradient-3" x1="0.837" y1="-0.507" x2="0.5" y2="1" gradientUnits="objectBoundingBox">
      <stop offset="0" stop-color="#c25a3c"/>
      <stop offset="1" stop-color="#612d1e"/>
    </linearGradient>
    <linearGradient id="linear-gradient-4" x1="0.72" y1="0.683" x2="0.628" y2="1.658" gradientUnits="objectBoundingBox">
      <stop offset="0" stop-color="#fff"/>
      <stop offset="1" stop-color="gray"/>
    </linearGradient>
    <linearGradient id="linear-gradient-14" x1="0.5" x2="-0.607" y2="0.433" gradientUnits="objectBoundingBox">
      <stop offset="0" stop-color="#a8a634"/>
      <stop offset="1" stop-color="#54531a"/>
    </linearGradient>
    <linearGradient id="linear-gradient-15" x1="0.5" x2="0.924" y2="0.867" gradientUnits="objectBoundingBox">
      <stop offset="0" stop-color="#dbd844"/>
      <stop offset="1" stop-color="#6e6c22"/>
    </linearGradient>
  </defs>
  <g id="Grupo_1" data-name="Grupo 1" transform="translate(-23.324 -85.889)">
    <path id="Trazado_1" data-name="Trazado 1" d="M259.652-211.061c-13.058,4.859-19.132,9.414-27.939,20.043-18.524,23.08-41.6,37.049-71.972,43.426-10.629,2.429-23.687,6.377-29.153,9.414-13.666,6.985-26.724,28.546-28.85,47.07-2.733,23.08-16.1,47.07-37.96,68.328-17.31,16.7-30.064,34.012-27.331,37.049.607.607,13.969-.911,29.761-3.34C82,8.8,112.975,5.158,134.536,3.336c58.61-5.163,58.914-5.163,60.736-13.666.911-4.252,2.429-11.236,3.34-15.791,2.429-11.844,17.31-23.991,31.886-26.42,17.31-2.733,29.153-9.414,44.337-24.9,16.095-16.7,23.687-18.524,50.714-11.843,20.347,5.163,22.776,5.163,38.871.3,28.546-8.2,40.693-5.77,54.055,11.236,8.807,10.932,28.85,22.472,44.641,24.9,18.221,3.037,30.064,14.88,32.8,32.8C498.344-3.345,494.7-4.559,552.1.3c22.472,1.822,54.359,5.466,70.757,8.2,16.4,2.429,30.672,3.948,31.279,3.037,3.644-3.34-8.5-19.739-25.205-34.316C607.669-41.3,596.129-61.347,590.055-90.8c-7.288-34.923-20.65-48.285-54.662-54.359-27.635-5.163-47.678-16.4-67.417-37.96-9.718-10.629-22.169-21.561-27.635-24.294-13.666-6.985-34.923-6.681-57.4.911-25.205,8.5-47.07,8.2-75.616-1.215C280.91-216.224,275.747-216.831,259.652-211.061Z" transform="translate(51.908 300.412) rotate(0.5)" fill="url(#linear-gradient)"/>
    <path id="Trazado_8" data-name="Trazado 8" d="M883,385c344.637-58.489,688-.008,688-.008L1547,582s-133.229-31.38-320-32-320,32-320,32Z" transform="translate(-827 -64)" stroke="#707070" stroke-width="1" fill="url(#linear-gradient-2)"/>
    <path id="Trazado_2" data-name="Trazado 2" d="M486.246-75.444a133.442,133.442,0,0,0-4.859,18.524C478.35-39.913,467.418-28.981,449.5-25.337c-20.043,4.252-25.509,7.592-44.034,24.6C387.247,16.267,376.922,19.3,359,12.927a79,79,0,0,0-52.233.3c-18.524,6.377-28.546,3.644-47.374-14.273-16.7-15.791-31.886-23.991-44.641-23.991-11.54,0-28.546-16.4-30.672-29.761a146.026,146.026,0,0,0-4.859-18.524c-2.733-6.681-3.948-6.985-21.865-5.163C126.082-75.14,44.393-63.6,43.178-62.386c-.911.607,3.644,5.163,9.718,10.325,14.273,11.54,31.583,45.248,34.316,66.2C89.945,34.184,103,54.835,117.883,62.73c6.377,3.037,19.739,7.288,29.457,9.11,24.294,4.555,43.426,15.791,66.809,39.478,27.939,28.546,43.426,33.1,76.527,21.258,25.205-9.11,61.04-9.11,82.6-.3,30.672,12.755,53.751,6.377,77.438-21.258,16.1-18.828,41-33.708,64.38-38.871,8.5-1.518,18.221-3.644,21.865-4.555,9.11-2.126,27.331-18.524,33.1-29.457,2.429-4.859,5.77-16.4,7.592-25.813,4.555-23.383,17.917-48.892,33.1-62.862,6.985-6.377,12.147-11.843,11.54-12.451-.3-.607-26.724-4.555-58.61-8.807-31.583-4.555-61.647-8.807-66.2-9.414C490.8-82.428,488.676-81.214,486.246-75.444Z" transform="translate(65.994 573.743)" fill="url(#linear-gradient-3)"/>
    <path id="Trazado_10" data-name="Trazado 10" d="M122.009-12a6.4,6.4,0,0,1-.281,2.357q-3.094,6.285-6.891,13.258a84.459,84.459,0,0,1-8.578,12.866A48.715,48.715,0,0,1,95.642,26.3a23.01,23.01,0,0,1-13.148,3.928,15.87,15.87,0,0,1-6.68-1.768,89.869,89.869,0,0,1-8.226-4.518q-4.5-2.75-9.7-5.893T46.775,11.965A37.323,37.323,0,0,1,35.244,25.027q-7.172,5.009-18.422,5.009-9,0-13.078-3.339A10.458,10.458,0,0,1-.334,18.25,18.01,18.01,0,0,1,1.846,10.2,31.562,31.562,0,0,1,8.174,1.849,46.318,46.318,0,0,1,18.228-5.418a53.127,53.127,0,0,1,13.359-5.009A129.692,129.692,0,0,0,33.767-28.6q.492-9.526.562-19.446t.211-19.74q.141-9.821.984-19.053a80.639,80.639,0,0,1,4.359-19.838,84.807,84.807,0,0,1,8.648-17.972,52.854,52.854,0,0,1,11.461-12.964q6.328-5.009,12.8-5.009,5.062,0,11.391,3.83A52.738,52.738,0,0,1,96.064-128.77a61.617,61.617,0,0,1,9.422,14.044,36.087,36.087,0,0,1,3.867,16.106,7.707,7.707,0,0,1-.773,2.946q-.773,1.768-4.289,5.3T93.532-80.844Q86.29-74.853,73.493-65.032a3.3,3.3,0,0,1-.844.589,5.852,5.852,0,0,1-1.828.393,2.383,2.383,0,0,1-1.969-1.277,14.077,14.077,0,0,1-1.406-2.75,13.913,13.913,0,0,1-.773-2.848q-.211-1.375-.211-1.571a5.335,5.335,0,0,1,.492-1.964,4.961,4.961,0,0,1,2.039-2.161,34.061,34.061,0,0,0,4.219-3.536q2.953-2.75,6.047-5.7,3.656-3.536,7.875-7.464a2.98,2.98,0,0,0,.984-.982,7.093,7.093,0,0,0,.633-1.179,4.283,4.283,0,0,0,.352-1.768,33.235,33.235,0,0,0-1.477-7.268,85.936,85.936,0,0,0-3.937-11,49.777,49.777,0,0,0-5.766-10.116q-3.3-4.419-6.961-4.419-3.516,0-5.906,5.009a54.858,54.858,0,0,0-3.937,13.16,177.911,177.911,0,0,0-2.391,18.267q-.844,10.116-1.2,20.33t-.422,19.544q-.07,9.33-.211,15.615-.141,5.7-.773,12.473t-1.9,14.044A76.1,76.1,0,0,1,68.361-8.463Q74.9-6.3,80.525-4.043T90.931.081a24.812,24.812,0,0,0,9,1.866,9.542,9.542,0,0,0,5.836-2.062,28.214,28.214,0,0,0,5.2-5.205,50.032,50.032,0,0,0,4.5-6.875q2.039-3.732,3.586-7.268a.838.838,0,0,1,.7-.393q.984,0,1.617,2.75A22.866,22.866,0,0,1,122.009-12Z" transform="matrix(0.995, -0.105, 0.105, 0.995, 91.5, 465.899)" fill="url(#linear-gradient-4)"/>
    <path id="Trazado_11" data-name="Trazado 11" d="M63.148-30.619a3.666,3.666,0,0,1-.208,1.528Q58.666-22.344,54.6-17.125q-1.772,2.292-3.6,4.392T47.461-8.913a19.579,19.579,0,0,1-3.336,2.737,5.562,5.562,0,0,1-2.866,1.018q-3.544,0-5.472-4.01a33.5,33.5,0,0,1-2.762-9.485,33.316,33.316,0,0,1-2.137,2.673,60.014,60.014,0,0,1-4.691,4.9,45.214,45.214,0,0,1-5.785,4.647A9.935,9.935,0,0,1,15.1-4.394,9.113,9.113,0,0,1,9.519-6.3,17.058,17.058,0,0,1,5.089-11.4,27.409,27.409,0,0,1,2.17-18.843a38.245,38.245,0,0,1-1.042-9.1A43.13,43.13,0,0,1,3.473-41.7a35.213,35.213,0,0,1,7.609-12.731,39.913,39.913,0,0,1,13.811-9.421q8.547-3.692,20.951-3.692a2.48,2.48,0,0,1,.625.382,5.577,5.577,0,0,1,.469.7A2.709,2.709,0,0,1,47.2-65.12v35.01q0,1.018.052,2.228a9.738,9.738,0,0,0,.365,2.292,4.946,4.946,0,0,0,.886,1.782,1.971,1.971,0,0,0,1.616.7q1.772.127,3.752-1.846a29.4,29.4,0,0,0,3.544-4.265q.938-1.4,1.824-2.992t1.72-3.246a.647.647,0,0,1,.521-.255q.73,0,1.2,1.782A13.06,13.06,0,0,1,63.148-30.619ZM32.607-58.755a18.6,18.6,0,0,0-7.713,3.819,23.325,23.325,0,0,0-5.108,6.111,25.078,25.078,0,0,0-2.814,7.384,37.5,37.5,0,0,0-.834,7.766,31.964,31.964,0,0,0,.521,5.856,23.9,23.9,0,0,0,1.407,4.9A10.67,10.67,0,0,0,20.2-19.543a3.756,3.756,0,0,0,2.71,1.273,4.681,4.681,0,0,0,2.814-1.273,32.988,32.988,0,0,0,3.023-2.8,42.947,42.947,0,0,0,3.336-4.074,2.382,2.382,0,0,0,.365-.955,6.4,6.4,0,0,0,.052-.7V-45.387Q32.5-51.5,32.607-58.755Z" transform="matrix(0.998, -0.07, 0.07, 0.998, 211.586, 457.305)" fill="url(#linear-gradient-4)"/>
    <path id="Trazado_12" data-name="Trazado 12" d="M109.221-81.062a19.073,19.073,0,0,1-.889,6.194,6.734,6.734,0,0,1-2.667,3.689q-9.777,6.4-16.57,10.857t-11.3,7.377q-4.508,2.923-7.047,4.663A44.875,44.875,0,0,0,67-45.5a5.941,5.941,0,0,0-1.524,1.74,2.3,2.3,0,0,0-.19,1.392q.508,7.934.825,12.458t.508,6.96q.19,2.436.254,3.341t.063,1.74A49.26,49.26,0,0,1,64.906-4.157,47.677,47.677,0,0,1,59.065,8.718a34.476,34.476,0,0,1-9.206,9.6,20.522,20.522,0,0,1-12,3.758,20.888,20.888,0,0,1-8.634-2.158A37.514,37.514,0,0,1,20.4,14.217a32.765,32.765,0,0,1-6.857-8.143,18.3,18.3,0,0,1-2.73-9.465,6.437,6.437,0,0,1,1.651-4.385A12.427,12.427,0,0,1,16.4-10.769a21.989,21.989,0,0,1,4.7-1.67A18.03,18.03,0,0,1,24.908-13a3.61,3.61,0,0,1,2.159.557A6.044,6.044,0,0,1,28.4-9.655q.571,2.088,1.143,4.8T30.876.854a29.32,29.32,0,0,0,1.968,5.5,13.064,13.064,0,0,0,2.984,4.106,6.394,6.394,0,0,0,4.444,1.6q2.159,0,3.555-2.993a29.493,29.493,0,0,0,2.159-7.308,84.726,84.726,0,0,0,1.079-8.978q.317-4.663.317-8,0-10.44-.825-20.531T44.78-55.729q-.952-9.883-1.714-19.487T42.3-94.146a13.641,13.641,0,0,1,.571-3.689q.571-2.018,3.619-2.714,1.651-.418,3.873-.9t4.19-1.044q1.968-.557,3.428-.9t1.587-.348a4.92,4.92,0,0,1,1.9.626q1.27.626,1.4,3.41,0,1.114.19,4.733t.317,8.421q.127,4.8.381,10.161t.381,10.092q.127,4.733.254,8.143t.254,4.245a.417.417,0,0,0,.127.278.689.689,0,0,0,.508.139l.508-.278q.254-.139,2.54-1.67t5.587-3.828q3.3-2.3,7.174-4.941t7.555-5.15a3.273,3.273,0,0,0,.508-.835,4.967,4.967,0,0,0,.444-.974,4.9,4.9,0,0,0,.19-1.531A45.359,45.359,0,0,0,87-88.509a43.319,43.319,0,0,0-7.746-13.363,37.016,37.016,0,0,0-11.872-9.187,33.572,33.572,0,0,0-15.047-3.41,38.965,38.965,0,0,0-16.888,3.549,38.6,38.6,0,0,0-12.634,9.4,41.3,41.3,0,0,0-7.873,13.432,45.9,45.9,0,0,0-2.73,15.659,45.373,45.373,0,0,0,1.333,10.857,44.989,44.989,0,0,0,4,10.44,45.093,45.093,0,0,0,6.793,9.465,45.722,45.722,0,0,0,9.841,7.934,2.84,2.84,0,0,1,1.016,1.322,5.153,5.153,0,0,1,.381,2.018,6.083,6.083,0,0,1-.381,2.227,3.426,3.426,0,0,1-.889,1.462,2.422,2.422,0,0,1-1.778.626,43.71,43.71,0,0,1-14.158-7.864A48.781,48.781,0,0,1,8.275-45.567a52.044,52.044,0,0,1-6.095-14.2A60.525,60.525,0,0,1,.148-75.355a62.994,62.994,0,0,1,3.492-20.6,52.813,52.813,0,0,1,10.539-18.1,53.579,53.579,0,0,1,17.586-12.875q10.539-4.941,24.507-4.941a51.791,51.791,0,0,1,16.507,2.505,51.108,51.108,0,0,1,13.4,6.681A50.393,50.393,0,0,1,96.4-113.146a62.828,62.828,0,0,1,7.174,11,54.177,54.177,0,0,1,4.254,11.136A40.792,40.792,0,0,1,109.221-81.062Z" transform="translate(302.878 440.028) rotate(-2)" fill="url(#linear-gradient-4)"/>
    <path id="Trazado_13" data-name="Trazado 13" d="M65.449-39.38a3.441,3.441,0,0,1-.216,1.5Q60.81-31.243,56.6-26.111q-1.834,2.253-3.722,4.319t-3.668,3.755a20.091,20.091,0,0,1-3.452,2.691,5.956,5.956,0,0,1-2.967,1q-3.668,0-5.663-3.943a31.711,31.711,0,0,1-2.859-9.326,33.076,33.076,0,0,1-2.211,2.629,60.444,60.444,0,0,1-4.854,4.819A46.458,46.458,0,0,1,21.221-15.6a10.615,10.615,0,0,1-5.5,2A9.755,9.755,0,0,1,9.948-15.47a17.066,17.066,0,0,1-4.585-5.007A26.176,26.176,0,0,1,2.343-27.8a35.819,35.819,0,0,1-1.079-8.95A40.5,40.5,0,0,1,3.691-50.27a34.319,34.319,0,0,1,7.875-12.518,41.439,41.439,0,0,1,14.293-9.263q8.846-3.63,21.683-3.63a2.6,2.6,0,0,1,.647.376,5.476,5.476,0,0,1,.485.688,2.552,2.552,0,0,1,.27,1.314v34.425q0,1,.054,2.191a9.137,9.137,0,0,0,.378,2.253,4.774,4.774,0,0,0,.917,1.753,2.088,2.088,0,0,0,1.672.688,5.311,5.311,0,0,0,3.883-1.815A29.3,29.3,0,0,0,59.516-38q.971-1.377,1.888-2.942t1.78-3.192a.683.683,0,0,1,.539-.25q.755,0,1.241,1.753A12.243,12.243,0,0,1,65.449-39.38ZM33.842-67.045a19.654,19.654,0,0,0-7.983,3.755,23.256,23.256,0,0,0-5.286,6.009,23.923,23.923,0,0,0-2.913,7.26,35.1,35.1,0,0,0-.863,7.636,29.907,29.907,0,0,0,.539,5.758,22.612,22.612,0,0,0,1.456,4.819A10.443,10.443,0,0,0,21-28.489a3.976,3.976,0,0,0,2.8,1.252,4.971,4.971,0,0,0,2.913-1.252,33.538,33.538,0,0,0,3.128-2.754A42.758,42.758,0,0,0,33.3-35.249a2.272,2.272,0,0,0,.378-.939,5.986,5.986,0,0,0,.054-.688V-53.9Q33.734-59.909,33.842-67.045Z" transform="translate(378.378 469.92) rotate(-2)" fill="url(#linear-gradient-4)"/>
    <path id="Trazado_14" data-name="Trazado 14" d="M61.962-35.67a4.2,4.2,0,0,1-.213,1.658q-2.343,4.422-5.166,9.051a86.241,86.241,0,0,1-5.751,8.36,43.222,43.222,0,0,1-5.751,6.149q-2.822,2.418-5.272,2.418a4.457,4.457,0,0,1-3.142-1.382,11.308,11.308,0,0,1-2.5-4.56,41.772,41.772,0,0,1-1.651-8.291,113.2,113.2,0,0,1-.586-12.574q0-3.454-.107-7.531t-.373-7.669a43.581,43.581,0,0,0-.8-6.011q-.533-2.418-1.385-2.418-1.811,0-3.887,2.487a30.772,30.772,0,0,0-3.834,6.011,45.5,45.5,0,0,0-2.876,7.254A22.491,22.491,0,0,0,17.549-36.5q0,.829.053,2.073t.107,3.938q.053,2.694.266,7.393t.533,12.3a5.67,5.67,0,0,1-.213,1.658q-.426,1.52-1.278,1.52H8.922q-2.024,0-4.047-.138a.957.957,0,0,1-.959-.276,3.233,3.233,0,0,1-.639-.829,3.393,3.393,0,0,1-.32-1.658q-.213-4.422-.426-9.534-.213-4.284-.266-9.811T2.212-41.2q0-4.56.107-9.465t.213-9.051q.107-4.145.213-6.978a28.879,28.879,0,0,1,.213-3.247A6.593,6.593,0,0,1,3.6-71.527,2.846,2.846,0,0,1,5.3-72.7q.639-.138,2.13-.484t3.142-.76a29.765,29.765,0,0,1,3.142-.622,17.987,17.987,0,0,1,2.024-.207q2.024,0,2.024,2.349,0,1.105-.107,3.178t-.213,4.353q-.107,2.28-.213,4.629t-.107,4.145a11.557,11.557,0,0,0,.107,2.073,30.448,30.448,0,0,1,3.728-6.7,55.21,55.21,0,0,1,6.018-7.185A43.866,43.866,0,0,1,34-73.738a12.442,12.442,0,0,1,6.657-2.418,5.56,5.56,0,0,1,4.846,2.971q1.864,2.971,1.864,10.018,0,.829-.053,4.974t-.053,8.843q-.106,5.527-.107,12.16a12.965,12.965,0,0,0,.746,4.422,3.064,3.064,0,0,0,2.876,2.211,5.177,5.177,0,0,0,4.74-2.764,82.872,82.872,0,0,0,4.207-7.6.648.648,0,0,1,.533-.276q.746,0,1.225,1.934A15,15,0,0,1,61.962-35.67Z" transform="translate(437.134 462.032) rotate(1)" fill="url(#linear-gradient-4)"/>
    <path id="Trazado_17" data-name="Trazado 17" d="M22.207-107.457a10.849,10.849,0,0,1-2.748,7.492,8.439,8.439,0,0,1-6.49,3.077,8.382,8.382,0,0,1-6.548-3.077,10.988,10.988,0,0,1-2.689-7.492,11.058,11.058,0,0,1,2.689-7.425,8.312,8.312,0,0,1,6.548-3.144,8.369,8.369,0,0,1,6.49,3.144A10.918,10.918,0,0,1,22.207-107.457ZM35.42-43.372a3.632,3.632,0,0,1-.234,1.605q-4.443,6.957-8.653,12.309-1.754,2.274-3.683,4.482a53.069,53.069,0,0,1-3.8,3.947,23,23,0,0,1-3.625,2.81,6.218,6.218,0,0,1-3.157,1.07A6.385,6.385,0,0,1,7.3-19.29a15.126,15.126,0,0,1-3.04-5.686A41.367,41.367,0,0,1,2.68-33.137a93.519,93.519,0,0,1-.468-9.432q0-4.014.058-8.83t.117-9.3q.058-4.482.117-8.161t.058-5.418a8.255,8.255,0,0,1,.292-2.408A5.977,5.977,0,0,1,3.5-78.157a3.748,3.748,0,0,1,.935-.8,16.738,16.738,0,0,1,3.216-1.2q1.929-.535,3.742-.937t3.274-.6q1.462-.2,1.812-.2a1.855,1.855,0,0,1,1.754.8,3.653,3.653,0,0,1,.468,1.873v3.813q0,2.341-.058,6.422t-.117,10.435q-.058,6.355-.058,15.72a22.419,22.419,0,0,0,.409,4.348,2.62,2.62,0,0,0,2.748,2.208,5.485,5.485,0,0,0,3.04-1,13.07,13.07,0,0,0,2.923-2.743,36.638,36.638,0,0,0,2.748-3.947q1.345-2.208,2.631-4.482a.744.744,0,0,1,.585-.268q.818,0,1.345,1.873A12.916,12.916,0,0,1,35.42-43.372Z" transform="translate(582.452 479.272) rotate(3)" fill="url(#linear-gradient-4)"/>
    <path id="Trazado_16" data-name="Trazado 16" d="M47.973-42.4a3.734,3.734,0,0,1-.21,1.548Q43.774-34.143,40-28.984q-1.575,2.193-3.307,4.321a49.755,49.755,0,0,1-3.412,3.8,20.9,20.9,0,0,1-3.254,2.709,5.327,5.327,0,0,1-2.834,1.032,5.558,5.558,0,0,1-4.461-2.064A14.945,14.945,0,0,1,20-24.663a42.5,42.5,0,0,1-1.417-7.868q-.42-4.45-.42-9.093,0-3.869.21-7.739t.472-7.287q.262-3.418.577-6.191t.525-4.45q.21-2.322.315-3.354a7.3,7.3,0,0,0,.1-1.161,13.815,13.815,0,0,1-2.1-.387,14.269,14.269,0,0,0-1.522-.387q-.682-.129-.787-.387-2.414,7.61-4.829,14.317-1.05,2.838-2.152,5.74T6.718-47.364Q5.564-44.72,4.461-42.592a26.61,26.61,0,0,1-2.047,3.418q0,.129-.1.129H1.89a.764.764,0,0,1-.735-.387,2.6,2.6,0,0,1-.367-1.032Q.63-41.237.42-42.14.21-43.172,0-44.333a67.188,67.188,0,0,0,3.2-6.449q1.837-4.127,3.622-8.577T10.025-68q1.417-4.192,2.047-6.9a15.976,15.976,0,0,1-6.561-6.191,15.133,15.133,0,0,1-1.942-7.223,11.663,11.663,0,0,1,2.047-6.9,6.144,6.144,0,0,1,5.2-2.9A4.089,4.089,0,0,1,14.7-96.054a9.344,9.344,0,0,1,1.155,4.643,13.261,13.261,0,0,1-.787,4.514,8.77,8.77,0,0,1-2.152,3.482,12.121,12.121,0,0,0,6.036,4.45A23.278,23.278,0,0,0,25.509-78q1.575,0,3.464-.064t2.519-.064a5.271,5.271,0,0,1,1.68.193q.525.193.525,1.225a33.18,33.18,0,0,1-.262,3.676q-.262,2.257-.577,6.191t-.63,10q-.315,6.062-.315,15.091a10.844,10.844,0,0,0,.787,4.127,3.1,3.1,0,0,0,2.887,2.064,4.7,4.7,0,0,0,2.729-.967,12.116,12.116,0,0,0,2.624-2.644,35.484,35.484,0,0,0,2.467-3.8q1.207-2.128,2.362-4.321a.65.65,0,0,1,.525-.258q.735,0,1.207,1.806A13.305,13.305,0,0,1,47.973-42.4Z" transform="translate(541 474.118)" fill="url(#linear-gradient-4)"/>
    <path id="Trazado_15" data-name="Trazado 15" d="M48.9-42.274a3.366,3.366,0,0,1-.216,1.485,78.369,78.369,0,0,1-5.176,8.165,56.416,56.416,0,0,1-6.524,7.608,36.734,36.734,0,0,1-7.278,5.567,14.713,14.713,0,0,1-7.332,2.165,14.4,14.4,0,0,1-8.141-2.474,22.352,22.352,0,0,1-6.416-6.681,34.182,34.182,0,0,1-4.151-9.588,43.173,43.173,0,0,1-1.456-11.32A61.756,61.756,0,0,1,3.883-61.511a44.8,44.8,0,0,1,5.068-12.8,29.114,29.114,0,0,1,8.518-9.217,20.678,20.678,0,0,1,12.023-3.526,9.264,9.264,0,0,1,7.494,3.278q2.75,3.278,2.75,8.845A15.311,15.311,0,0,1,38.119-68.5a34.415,34.415,0,0,1-4.529,7.052,69.174,69.174,0,0,1-6.955,7.3,86.712,86.712,0,0,1-9,7.175,26.591,26.591,0,0,0,4.529,9.588,9.5,9.5,0,0,0,7.871,3.9,12.01,12.01,0,0,0,6.524-1.794,22.79,22.79,0,0,0,4.906-4.083A27.711,27.711,0,0,0,44.8-43.882q1.294-2.227,1.833-3.093a.686.686,0,0,1,.539-.247q.755,0,1.24,1.732A11.973,11.973,0,0,1,48.9-42.274ZM29.277-73.45q0-2.845-1.132-3.464a4.2,4.2,0,0,0-1.564-.619,6.39,6.39,0,0,0-4.367,1.67,13.364,13.364,0,0,0-3.181,4.454,26.013,26.013,0,0,0-1.941,6.433,42.8,42.8,0,0,0-.647,7.485q0,.99,0,1.856a14,14,0,0,0,.108,1.732,22.394,22.394,0,0,0,3.936-3.464,42.626,42.626,0,0,0,4.151-5.2,40.3,40.3,0,0,0,3.289-5.753A12.49,12.49,0,0,0,29.277-73.45Z" transform="translate(493.609 470.823) rotate(3)" fill="url(#linear-gradient-4)"/>
    <path id="Trazado_18" data-name="Trazado 18" d="M39.53-40.84a3.976,3.976,0,0,1-.227,1.661A106.977,106.977,0,0,1,33.4-29.768a68,68,0,0,1-6.929,8.442,39.847,39.847,0,0,1-7.27,6.02,12.956,12.956,0,0,1-6.816,2.284,7.318,7.318,0,0,1-4.26-1.384,11.042,11.042,0,0,1-3.465-4.636,32.669,32.669,0,0,1-2.272-8.373,83.96,83.96,0,0,1-.8-12.594q0-3.875.057-11.141T1.931-67a1,1,0,0,1-.568.277.867.867,0,0,0-.454.138.767.767,0,0,1-.341.138Q0-66.443,0-67.689v-1.938q0-1.246.114-2.491,0-1.522.114-3.183a1.746,1.746,0,0,0,.17-.761q.057-.623,1.079-1.176a2.444,2.444,0,0,0,.909-.415q.227-6.5.568-12.733t.738-11.141q.4-4.913.966-8.1t1.25-3.875q1.25-.692,3.124-1.522t3.635-1.592q1.761-.761,3.181-1.246a8.3,8.3,0,0,1,1.761-.484,1.766,1.766,0,0,1,1.7.83,3.974,3.974,0,0,1,.454,1.938q0,.138-.114,2.7t-.341,6.781q-.227,4.221-.511,9.757t-.511,11.764q2.726-1.107,5.282-2.214t4.487-1.938q2.272-.969,4.43-1.938a.867.867,0,0,0,.454-.138,1.052,1.052,0,0,0,.4-.069,1.052,1.052,0,0,1,.4-.069,1.42,1.42,0,0,1,.966.346,1.937,1.937,0,0,1,.4,1.453q0,1.107-.057,2.353t-.17,2.353q-.114,1.384-.227,2.491a1.922,1.922,0,0,1-.341.969,4.421,4.421,0,0,1-.8.969,3.558,3.558,0,0,1-1.477.83L17.834-73.5q-.341,9-.511,17.507t-.17,15.016q0,4.29,1.59,6.435a4.984,4.984,0,0,0,4.2,2.145q3.181,0,7.043-3.322T37.145-46.1a.37.37,0,0,1,.341-.277q.909,0,1.477,1.938A12.847,12.847,0,0,1,39.53-40.84Z" transform="translate(610.188 479.393) rotate(8)" fill="url(#linear-gradient-4)"/>
    <path id="Trazado_19" data-name="Trazado 19" d="M64.186-39.38a3.5,3.5,0,0,1-.212,1.5q-4.336,6.635-8.46,11.767-1.8,2.253-3.648,4.319t-3.6,3.755a19.752,19.752,0,0,1-3.384,2.691,5.761,5.761,0,0,1-2.908,1q-3.6,0-5.552-3.943a32.176,32.176,0,0,1-2.8-9.326,32.938,32.938,0,0,1-2.168,2.629A59.856,59.856,0,0,1,26.7-20.164,45.651,45.651,0,0,1,20.828-15.6a10.276,10.276,0,0,1-5.393,2A9.437,9.437,0,0,1,9.777-15.47a16.944,16.944,0,0,1-4.494-5.007A26.468,26.468,0,0,1,2.322-27.8a36.5,36.5,0,0,1-1.058-8.95A41.229,41.229,0,0,1,3.643-50.27a34.425,34.425,0,0,1,7.72-12.518,40.558,40.558,0,0,1,14.012-9.263q8.672-3.63,21.256-3.63a2.532,2.532,0,0,1,.635.376,5.477,5.477,0,0,1,.476.688,2.594,2.594,0,0,1,.264,1.314v34.425q0,1,.053,2.191a9.3,9.3,0,0,0,.37,2.253,4.807,4.807,0,0,0,.9,1.753,2.028,2.028,0,0,0,1.639.688,5.162,5.162,0,0,0,3.807-1.815A29.135,29.135,0,0,0,58.37-38q.952-1.377,1.851-2.942t1.745-3.192a.664.664,0,0,1,.529-.25q.74,0,1.216,1.753A12.471,12.471,0,0,1,64.186-39.38ZM33.2-67.045a19.105,19.105,0,0,0-7.826,3.755,23.12,23.12,0,0,0-5.182,6.009,24.2,24.2,0,0,0-2.855,7.26,35.778,35.778,0,0,0-.846,7.636,30.489,30.489,0,0,0,.529,5.758,22.949,22.949,0,0,0,1.428,4.819,10.458,10.458,0,0,0,2.168,3.317,3.863,3.863,0,0,0,2.75,1.252,4.823,4.823,0,0,0,2.855-1.252,33.09,33.09,0,0,0,3.067-2.754,42.533,42.533,0,0,0,3.384-4.006,2.3,2.3,0,0,0,.37-.939,6.1,6.1,0,0,0,.053-.688V-53.9Q33.1-59.909,33.2-67.045Z" transform="translate(639.552 488.095) rotate(11)" fill="url(#linear-gradient-4)"/>
    <path id="Trazado_20" data-name="Trazado 20" d="M516.7,259h-.186l-.608.173L480,267l40,104-16,90.037s20.642-1.392,46.608-4.048c18.724-1.823,45.841-5.281,46.56-5.99.891-.879-11.432-18.368-16.4-24-2.383-3.02-8.855-8.222-11.267-10.937-4.222-4.754-4.015-5.906-5.137-5.063-8.782,1.252-28.361,6.056-28.361,6.056" transform="translate(-456 101)" stroke="#707070" stroke-width="1" fill="url(#linear-gradient-14)"/>
    <path id="Trazado_21" data-name="Trazado 21" d="M1208,463.983,1192,371l40-104-36.731-8L1176,416.987l-21.124-4.51-10.4-1.937a69.881,69.881,0,0,1-9.769,9.721,65.338,65.338,0,0,0-10.618,11.335l-6.667,9.9-7.277,13.216" transform="translate(-456 101)" stroke="#707070" stroke-linecap="round" stroke-width="1" fill="url(#linear-gradient-15)"/>
    <path id="Trazado_22" data-name="Trazado 22" d="M696,198.819s83.767-5.816,160-5.067c45.517-.064,94.469,2.281,125.309,4.064,18.057,1.044,30.157,2.273,29.843,1.593-.528-1.145-3.733-3.134-5.883-8.447-1.81-9.729-2.334-11.47-3.469-15.838-2.489-9.578-9.8-16.349-9.8-16.349s-9.131-8.238-17.427-9.294S944.707,139,944.707,139a144.138,144.138,0,0,1-14.1-11.164c-5.012-4.573-10.108-10.271-12.218-12.27-4.751-4.5-14-7.049-16.668-7.263-8.447-.679-10.408,0-10.408,0L880,110.414s-16.622,5.657-24,5.506-8.886-.92-8.886-.92l-9.087-1.465-20.506-4.512-9.024-.361-7.078,1.16-5.743,2.785-7.31,5.86L768,137.437l-8,4.583-9.286,4.088s-5.02.866-11.291,2.41a51.836,51.836,0,0,0-9.327,2.767c-8.3,3.883-9.1,4.954-9.1,4.954s-4.634,1.958-8.992,7.954a30.593,30.593,0,0,0-3.291,5.287,59.643,59.643,0,0,0-3.879,12.015c-.64,3.007-.96,5.8-1.476,8.273a34.258,34.258,0,0,1-1.123,4.136,6.8,6.8,0,0,1-2.1,2.935A14.572,14.572,0,0,1,696,198.819Z" transform="translate(-456 101)" fill="#ea8c37" stroke="#707070" stroke-width="1"/>
    <path id="Trazado_23" data-name="Trazado 23" d="M865.186,213.855c55.049,1.184,151.715-7.24,151.4-8.081-.528-1.416-10.444-5.106-13.693-26.688-2.489-11.851-7.248-25.5-26.925-27.023s-23.078-6.486-41.179-18.7c0,0-14.3-13.524-16.406-16-4.751-5.57-14-8.721-16.668-8.987-8.447-.84-10.408,0-10.408,0L880,110.987s-16.622,7-24,6.812-8.886-1.138-8.886-1.138l-9.087-1.812-20.506-5.582-9.024-.447-7.078,1.436-5.743,3.445-7.31,7.25S772.751,137.009,761.956,143s-27.148,8.028-37.345,13c-2.854.868-9.76,6.533-14.119,13.952a41.353,41.353,0,0,0-4.608,14.609c-.231.625-.936,4.018-1.569,7.059-.158.763-.333,2.027-.49,2.549-1.833,6.087-3.948,11.04-5.194,12.257C697.073,207.947,810.174,215.577,865.186,213.855Z" transform="translate(1253.579 700.001) rotate(180)" fill="#ea8c37" stroke="#707070" stroke-width="1"/>
  </g>
</svg>
